<svg xmlns="http://www.w3.org/2000/svg" width="800" height="600">
<rect width="100%" height="100%" fill="white" />
<line x1="60" y1="540" x2="740" y2="540" stroke="black" />
<line x1="60" y1="540" x2="60" y2="60" stroke="black" />
<text x="400" y="590" text-anchor="middle">Steps</text>
<text x="20" y="300" text-anchor="middle" transform="rotate(-90 20 300)">Log10 Loss</text>
<path d="M60 300.741 L 88.3333 289.997 L 116.667 273.333 L 145 305.173 L 173.333 304.059 L 201.667 352.471 L 230 328.043 L 258.333 349.123 L 286.667 295.355 L 315 313.136 L 343.333 337.06 L 371.667 316.083 L 400 316.748 L 428.333 349.653 L 456.667 324.161 L 485 316.657 L 513.333 370.481 L 541.667 326.947 L 570 390.404 L 598.333 319.698 L 626.667 379.805 L 655 325.846 L 683.333 333.621 L 711.667 373.119 L 740 362.694" fill="none" stroke="red" stroke-width="2" />
<path d="M60 60 L 88.3333 60.4581 L 116.667 75.0546 L 145 67.7089 L 173.333 70.1999 L 201.667 78.588 L 230 74.4306 L 258.333 104.375 L 286.667 71.2204 L 315 76.654 L 343.333 108.725 L 371.667 74.877 L 400 79.5392 L 428.333 95.4061 L 456.667 87.4671 L 485 114.125 L 513.333 109.549 L 541.667 102.613 L 570 106.4 L 598.333 94.006 L 626.667 107.969 L 655 119.36 L 683.333 110.261 L 711.667 109.592 L 740 101.318" fill="none" stroke="black" stroke-width="2" />
<path d="M60 514.173 L 88.3333 517.915 L 116.667 530.476 L 145 513.738 L 173.333 510.993 L 201.667 528.358 L 230 520.233 L 258.333 523.457 L 286.667 521.893 L 315 519.601 L 343.333 525.486 L 371.667 519.477 L 400 528.887 L 428.333 531.65 L 456.667 520.166 L 485 515.096 L 513.333 513.181 L 541.667 512.818 L 570 526.309 L 598.333 540 L 626.667 518.435 L 655 526.629 L 683.333 528.178 L 711.667 526.249 L 740 532.73" fill="none" stroke="green" stroke-width="2" />
<path d="M60 361.424 L 88.3333 396.052 L 116.667 448.976 L 145 429.673 L 173.333 422.157 L 201.667 410.377 L 230 419.275 L 258.333 409.733 L 286.667 420.075 L 315 431.888 L 343.333 406.927 L 371.667 455.444 L 400 449.865 L 428.333 437.3 L 456.667 413.642 L 485 415.197 L 513.333 422.193 L 541.667 430.41 L 570 416.425 L 598.333 459.514 L 626.667 420.331 L 655 436.457 L 683.333 422.922 L 711.667 439.298 L 740 412.788" fill="none" stroke="blue" stroke-width="2" />
<rect x="590" y="40" width="180" height="100" fill="white" stroke="black" opacity="0.8" />
<line x1="600" y1="50" x2="630" y2="50" stroke="red" stroke-width="2" />
<text x="640" y="55">he</text>
<line x1="600" y1="70" x2="630" y2="70" stroke="black" stroke-width="2" />
<text x="640" y="75">identity</text>
<line x1="600" y1="90" x2="630" y2="90" stroke="green" stroke-width="2" />
<text x="640" y="95">scaled_he_0.1</text>
<line x1="600" y1="110" x2="630" y2="110" stroke="blue" stroke-width="2" />
<text x="640" y="115">scaled_he_0.5</text>
</svg>
