<svg xmlns="http://www.w3.org/2000/svg" width="800" height="600">
<rect width="100%" height="100%" fill="white" />
<line x1="60" y1="540" x2="740" y2="540" stroke="black" />
<line x1="60" y1="540" x2="60" y2="60" stroke="black" />
<text x="400" y="590" text-anchor="middle">Steps</text>
<text x="20" y="300" text-anchor="middle" transform="rotate(-90 20 300)">Log10 Loss</text>
<path d="M60 261.744 L 88.3333 289.273 L 116.667 274.745 L 145 332.031 L 173.333 377.566 L 201.667 349.872 L 230 332.119 L 258.333 307.118 L 286.667 308.296 L 315 307.057 L 343.333 307.255 L 371.667 347.032 L 400 302.878 L 428.333 352.665 L 456.667 373.784 L 485 391.36 L 513.333 348.635 L 541.667 371.674 L 570 326.213 L 598.333 322.447 L 626.667 348.061 L 655 311.479 L 683.333 330.838 L 711.667 313.088 L 740 316.11" fill="none" stroke="red" stroke-width="2" />
<path d="M60 72.1322 L 88.3333 74.1678 L 116.667 89.2399 L 145 74.319 L 173.333 72.3974 L 201.667 76.7461 L 230 60 L 258.333 79.695 L 286.667 86.8496 L 315 105.721 L 343.333 94.5537 L 371.667 73.1178 L 400 103.397 L 428.333 97.2153 L 456.667 97.8725 L 485 97.7669 L 513.333 109.56 L 541.667 95.2264 L 570 101.948 L 598.333 97.3465 L 626.667 105.447 L 655 94.0783 L 683.333 120.255 L 711.667 100.657 L 740 102.815" fill="none" stroke="black" stroke-width="2" />
<path d="M60 509.478 L 88.3333 516.94 L 116.667 510.673 L 145 517.304 L 173.333 508.033 L 201.667 525.443 L 230 540 L 258.333 530.766 L 286.667 525.243 L 315 511.57 L 343.333 513.36 L 371.667 517.292 L 400 527.958 L 428.333 521.465 L 456.667 528.121 L 485 514.201 L 513.333 513.952 L 541.667 536.692 L 570 537.101 L 598.333 528.397 L 626.667 536.946 L 655 538.514 L 683.333 510.59 L 711.667 523.287 L 740 530.115" fill="none" stroke="green" stroke-width="2" />
<path d="M60 367.669 L 88.3333 393.273 L 116.667 400.1 L 145 443.194 L 173.333 401.528 L 201.667 386.987 L 230 389.165 L 258.333 385.167 L 286.667 386.077 L 315 404.153 L 343.333 391.111 L 371.667 404.832 L 400 404.395 L 428.333 436.463 L 456.667 450.832 L 485 386.165 L 513.333 406.737 L 541.667 424.964 L 570 467.579 L 598.333 440.274 L 626.667 437.893 L 655 419.126 L 683.333 418.273 L 711.667 427.616 L 740 429.635" fill="none" stroke="blue" stroke-width="2" />
<rect x="590" y="40" width="180" height="100" fill="white" stroke="black" opacity="0.8" />
<line x1="600" y1="50" x2="630" y2="50" stroke="red" stroke-width="2" />
<text x="640" y="55">he</text>
<line x1="600" y1="70" x2="630" y2="70" stroke="black" stroke-width="2" />
<text x="640" y="75">identity</text>
<line x1="600" y1="90" x2="630" y2="90" stroke="green" stroke-width="2" />
<text x="640" y="95">scaled_he_0.1</text>
<line x1="600" y1="110" x2="630" y2="110" stroke="blue" stroke-width="2" />
<text x="640" y="115">scaled_he_0.5</text>
</svg>
