<svg xmlns="http://www.w3.org/2000/svg" width="800" height="600">
<rect width="100%" height="100%" fill="white" />
<line x1="60" y1="540" x2="740" y2="540" stroke="black" />
<line x1="60" y1="540" x2="60" y2="60" stroke="black" />
<text x="400" y="590" text-anchor="middle" font-family="Arial" font-size="14">Steps</text>
<text x="20" y="300" text-anchor="middle" transform="rotate(-90 20 300)" font-family="Arial" font-size="14">Log10 Loss</text>
<path d="M60 492.233 L 61.3627 494.858 L 62.7255 511.219 L 64.0882 490.941 L 65.4509 483.659 L 66.8136 518.304 L 68.1764 505.913 L 69.5391 499.632 L 70.9018 500.562 L 72.2645 482.956 L 73.6273 495.179 L 74.99 503.733 L 76.3527 506.446 L 77.7154 498.727 L 79.0782 507.826 L 80.4409 499.382 L 81.8036 510.409 L 83.1663 493.476 L 84.5291 499.959 L 85.8918 501.907 L 87.2545 467.948 L 88.6172 496.418 L 89.98 504.176 L 91.3427 491.224 L 92.7054 489.98 L 94.0681 483.567 L 95.4309 495.325 L 96.7936 498.749 L 98.1563 490.029 L 99.519 502.691 L 100.882 505.04 L 102.244 495.824 L 103.607 504.585 L 104.97 474.752 L 106.333 481.601 L 107.695 486.708 L 109.058 481.356 L 110.421 508.007 L 111.784 491.073 L 113.146 509.069 L 114.509 489.609 L 115.872 492.223 L 117.234 510.626 L 118.597 486.301 L 119.96 486.615 L 121.323 499.686 L 122.685 492.867 L 124.048 492.672 L 125.411 502.69 L 126.774 489.958 L 128.136 501.677 L 129.499 486.348 L 130.862 486.048 L 132.224 483.85 L 133.587 500.592 L 134.95 488.267 L 136.313 493.113 L 137.675 496.178 L 139.038 481.447 L 140.401 504.407 L 141.764 511.377 L 143.126 485.177 L 144.489 506.419 L 145.852 493.972 L 147.214 489.666 L 148.577 505.852 L 149.94 480.169 L 151.303 518.045 L 152.665 488.417 L 154.028 508.318 L 155.391 499.212 L 156.754 508.847 L 158.116 519.827 L 159.479 501.666 L 160.842 532.829 L 162.204 482.529 L 163.567 532.257 L 164.93 485.991 L 166.293 498.428 L 167.655 480.465 L 169.018 487.993 L 170.381 485.352 L 171.743 482.193 L 173.106 481.715 L 174.469 487.016 L 175.832 477.998 L 177.194 491.959 L 178.557 498.354 L 179.92 489.426 L 181.283 515.485 L 182.645 509.105 L 184.008 480.478 L 185.371 491.709 L 186.733 477.284 L 188.096 492.129 L 189.459 517.103 L 190.822 494.903 L 192.184 483.609 L 193.547 503.975 L 194.91 506.761 L 196.273 492.612 L 197.635 495.73 L 198.998 491.357 L 200.361 507.546 L 201.723 505.406 L 203.086 494.002 L 204.449 504.255 L 205.812 517.318 L 207.174 487.518 L 208.537 496.475 L 209.9 489.445 L 211.263 474.778 L 212.625 481.656 L 213.988 507.796 L 215.351 523.544 L 216.713 488.499 L 218.076 499.737 L 219.439 517.927 L 220.802 517.851 L 222.164 519.099 L 223.527 510.69 L 224.89 490.666 L 226.253 517.989 L 227.615 510.378 L 228.978 518.909 L 230.341 499.373 L 231.703 515.292 L 233.066 504.971 L 234.429 499.448 L 235.792 490.714 L 237.154 496.685 L 238.517 482.381 L 239.88 507.686 L 241.242 506.456 L 242.605 493.844 L 243.968 507.48 L 245.331 506.14 L 246.693 518.854 L 248.056 488.97 L 249.419 503.328 L 250.782 502.856 L 252.144 487.42 L 253.507 489.015 L 254.87 521.964 L 256.232 519.305 L 257.595 509.225 L 258.958 508.389 L 260.321 488.492 L 261.683 496.695 L 263.046 502.464 L 264.409 510.04 L 265.772 495.548 L 267.134 507.191 L 268.497 512.045 L 269.86 479.947 L 271.222 501.574 L 272.585 504.744 L 273.948 512.281 L 275.311 504.955 L 276.673 491.283 L 278.036 506.415 L 279.399 498.229 L 280.762 492.355 L 282.124 494.162 L 283.487 495.682 L 284.85 540 L 286.212 490.717 L 287.575 509.737 L 288.938 498.296 L 290.301 504.035 L 291.663 514.945 L 293.026 507.113 L 294.389 527.455 L 295.752 485.661 L 297.114 522.445 L 298.477 486.233 L 299.84 493.328 L 301.202 489.816 L 302.565 498.947 L 303.928 491.769 L 305.291 510.666 L 306.653 509.489 L 308.016 501.544 L 309.379 502.615 L 310.741 510.075 L 312.104 491.508 L 313.467 516.628 L 314.83 498.606 L 316.192 512.443 L 317.555 498.243 L 318.918 487.79 L 320.281 487.075 L 321.643 503.439 L 323.006 493.515 L 324.369 502.543 L 325.731 520.347 L 327.094 497.084 L 328.457 518.043 L 329.82 496.651 L 331.182 487.551 L 332.545 497.967 L 333.908 512.304 L 335.271 491.709 L 336.633 491.964 L 337.996 518.201 L 339.359 517.589 L 340.721 497.631 L 342.084 494.915 L 343.447 539.981 L 344.81 476.116 L 346.172 522.577 L 347.535 499.958 L 348.898 499.486 L 350.261 508.403 L 351.623 501.355 L 352.986 485.981 L 354.349 522.889 L 355.711 516.563 L 357.074 488.655 L 358.437 505.457 L 359.8 491.626 L 361.162 504.076 L 362.525 479.001 L 363.888 489.044 L 365.251 495.448 L 366.613 505.538 L 367.976 495.97 L 369.339 492.231 L 370.701 496.579 L 372.064 473.814 L 373.427 486.966 L 374.79 489.531 L 376.152 487.875 L 377.515 488.251 L 378.878 510.461 L 380.24 488.97 L 381.603 498.573 L 382.966 493.054 L 384.329 507.883 L 385.691 504.614 L 387.054 513.895 L 388.417 521.008 L 389.78 500.903 L 391.142 507.015 L 392.505 503.44 L 393.868 495.958 L 395.23 504.468 L 396.593 503.089 L 397.956 515.469 L 399.319 492.886 L 400.681 526.294 L 402.044 504.206 L 403.407 485.216 L 404.77 484.297 L 406.132 500.851 L 407.495 513.396 L 408.858 482.779 L 410.22 508.59 L 411.583 471.082 L 412.946 480.695 L 414.309 475.985 L 415.671 507.24 L 417.034 452.458 L 418.397 486.01 L 419.76 497.129 L 421.122 481.86 L 422.485 485.628 L 423.848 488.914 L 425.21 469.636 L 426.573 449.43 L 427.936 477.61 L 429.299 490.7 L 430.661 488.051 L 432.024 499.608 L 433.387 494.281 L 434.749 470.321 L 436.112 490.364 L 437.475 459.869 L 438.838 495.802 L 440.2 493.562 L 441.563 494.325 L 442.926 506.164 L 444.289 479.539 L 445.651 484.128 L 447.014 465.918 L 448.377 466.135 L 449.739 489.572 L 451.102 483.651 L 452.465 472.778 L 453.828 514.726 L 455.19 465.501 L 456.553 465.06 L 457.916 453.147 L 459.279 450.195 L 460.641 441.668 L 462.004 440.616 L 463.367 436.319 L 464.729 438.006 L 466.092 429.962 L 467.455 426.019 L 468.818 425.379 L 470.18 412.111 L 471.543 406.728 L 472.906 413.227 L 474.269 390.942 L 475.631 399.068 L 476.994 382.666 L 478.357 378.183 L 479.719 393.635 L 481.082 383.028 L 482.445 366.033 L 483.808 351.911 L 485.17 350.882 L 486.533 372.833 L 487.896 376.928 L 489.259 340.859 L 490.621 367.146 L 491.984 343.983 L 493.347 326.669 L 494.709 343.892 L 496.072 337.706 L 497.435 343.119 L 498.798 331.303 L 500.16 347.669 L 501.523 327.418 L 502.886 315.816 L 504.248 346.048 L 505.611 350.953 L 506.974 357.805 L 508.337 334.608 L 509.699 364.316 L 511.062 329.025 L 512.425 329.131 L 513.788 342.242 L 515.15 331.247 L 516.513 327.342 L 517.876 326.814 L 519.238 326.921 L 520.601 321.298 L 521.964 314.503 L 523.327 354.081 L 524.689 347.351 L 526.052 301.063 L 527.415 328.687 L 528.778 299.98 L 530.14 329.064 L 531.503 296.179 L 532.866 301.044 L 534.228 290.563 L 535.591 289.095 L 536.954 295.848 L 538.317 268.141 L 539.679 274.523 L 541.042 317.556 L 542.405 284.963 L 543.768 280.023 L 545.13 275.332 L 546.493 265.282 L 547.856 293.492 L 549.218 241.804 L 550.581 238.679 L 551.944 260.857 L 553.307 241.179 L 554.669 250.271 L 556.032 259.117 L 557.395 256.726 L 558.758 244.632 L 560.12 251.794 L 561.483 237.13 L 562.846 266.264 L 564.208 238.442 L 565.571 273.087 L 566.934 243.717 L 568.297 262.238 L 569.659 283.866 L 571.022 237.616 L 572.385 242.292 L 573.747 240.859 L 575.11 218.834 L 576.473 249.494 L 577.836 224.035 L 579.198 238.864 L 580.561 262.674 L 581.924 219.741 L 583.287 230.796 L 584.649 247.402 L 586.012 227.559 L 587.375 217.665 L 588.737 237.85 L 590.1 208.428 L 591.463 228.64 L 592.826 233.669 L 594.188 236.382 L 595.551 210.87 L 596.914 232.982 L 598.277 219.538 L 599.639 208.658 L 601.002 232.567 L 602.365 249.886 L 603.727 275.912 L 605.09 239.277 L 606.453 207.193 L 607.816 200.305 L 609.178 210.226 L 610.541 188.896 L 611.904 190.054 L 613.267 231.892 L 614.629 231.809 L 615.992 197.889 L 617.355 225.669 L 618.717 207.505 L 620.08 213.121 L 621.443 197.338 L 622.806 200.017 L 624.168 214.181 L 625.531 222.718 L 626.894 211.492 L 628.257 178.337 L 629.619 199.098 L 630.982 182.416 L 632.345 175.85 L 633.707 214.727 L 635.07 208.835 L 636.433 210.935 L 637.796 183.017 L 639.158 195.44 L 640.521 196.53 L 641.884 197.901 L 643.246 179.698 L 644.609 170.485 L 645.972 209.688 L 647.335 176.584 L 648.697 211.769 L 650.06 199.847 L 651.423 189.216 L 652.786 197.338 L 654.148 195.935 L 655.511 172.731 L 656.874 183.482 L 658.236 191.095 L 659.599 193.059 L 660.962 180.846 L 662.325 170.502 L 663.687 168.114 L 665.05 202.919 L 666.413 180.186 L 667.776 172.802 L 669.138 178.527 L 670.501 186.35 L 671.864 159.536 L 673.226 186.732 L 674.589 152.939 L 675.952 146.87 L 677.315 127.211 L 678.677 122.531 L 680.04 124.917 L 681.403 153.621 L 682.766 136.779 L 684.128 128.623 L 685.491 131.731 L 686.854 149.549 L 688.216 111.649 L 689.579 117.348 L 690.942 95.4113 L 692.305 98.2013 L 693.667 67.8425 L 695.03 107.386 L 696.393 95.1559 L 697.756 60 L 699.118 72.4614 L 700.481 69.8375 L 701.844 69.7028 L 703.206 64.6957 L 704.569 73.3602 L 705.932 91.1283 L 707.295 95.1268 L 708.657 99.9482 L 710.02 105.051 L 711.383 96.6507 L 712.745 90.307 L 714.108 101.807 L 715.471 115.283 L 716.834 91.31 L 718.196 114.88 L 719.559 125.977 L 720.922 125.571 L 722.285 135.422 L 723.647 122.122 L 725.01 113.218 L 726.373 130.128 L 727.735 130.782 L 729.098 152.644 L 730.461 113.534 L 731.824 140.326 L 733.186 133.161 L 734.549 137.859 L 735.912 149.951 L 737.275 127.798 L 738.637 144.58 L 740 162.259" fill="none" stroke="blue" stroke-width="2" />
<text x="60" y="560" text-anchor="middle" font-size="12">0</text>
<text x="55" y="545" text-anchor="end" font-size="12">3.3e-01</text>
<text x="2.0e+02" y="5.6e+02" text-anchor="middle" font-size="12">99</text>
<text x="5.5e+01" y="4.5e+02" text-anchor="end" font-size="12">2.4e+01</text>
<text x="3.3e+02" y="5.6e+02" text-anchor="middle" font-size="12">199</text>
<text x="5.5e+01" y="3.5e+02" text-anchor="end" font-size="12">1.8e+03</text>
<text x="4.7e+02" y="5.6e+02" text-anchor="middle" font-size="12">299</text>
<text x="5.5e+01" y="2.6e+02" text-anchor="end" font-size="12">1.3e+05</text>
<text x="6.0e+02" y="5.6e+02" text-anchor="middle" font-size="12">399</text>
<text x="5.5e+01" y="1.6e+02" text-anchor="end" font-size="12">9.7e+06</text>
<text x="7.4e+02" y="5.6e+02" text-anchor="middle" font-size="12">499</text>
<text x="5.5e+01" y="6.5e+01" text-anchor="end" font-size="12">7.2e+08</text>
</svg>
