<svg xmlns="http://www.w3.org/2000/svg" width="800" height="600">
<rect width="100%" height="100%" fill="white" />
<line x1="60" y1="540" x2="740" y2="540" stroke="black" />
<line x1="60" y1="540" x2="60" y2="60" stroke="black" />
<text x="400" y="590" text-anchor="middle" font-family="Arial" font-size="14">Steps</text>
<text x="20" y="300" text-anchor="middle" transform="rotate(-90 20 300)" font-family="Arial" font-size="14">Log10 Loss</text>
<path d="M60 449.964 L 61.3627 489.883 L 62.7255 507.334 L 64.0882 481.337 L 65.4509 479.627 L 66.8136 482.345 L 68.1764 480.794 L 69.5391 474.575 L 70.9018 487.343 L 72.2645 481.886 L 73.6273 491.256 L 74.99 481.182 L 76.3527 497.904 L 77.7154 488.348 L 79.0782 473.095 L 80.4409 509.349 L 81.8036 477.248 L 83.1663 501.462 L 84.5291 492.782 L 85.8918 475.347 L 87.2545 476.148 L 88.6172 490.745 L 89.98 472.355 L 91.3427 475.881 L 92.7054 456.55 L 94.0681 488.723 L 95.4309 482.255 L 96.7936 489.16 L 98.1563 485.217 L 99.519 482.184 L 100.882 490.896 L 102.244 508.618 L 103.607 492.307 L 104.97 478.611 L 106.333 471.998 L 107.695 503.635 L 109.058 482.794 L 110.421 479.635 L 111.784 476.913 L 113.146 490.982 L 114.509 480.069 L 115.872 474.733 L 117.234 491.327 L 118.597 494.561 L 119.96 463.76 L 121.323 482.554 L 122.685 486.537 L 124.048 485.13 L 125.411 501.33 L 126.774 485.684 L 128.136 504.767 L 129.499 486.436 L 130.862 464.368 L 132.224 497.157 L 133.587 485.289 L 134.95 487.046 L 136.313 493.332 L 137.675 490.935 L 139.038 486.436 L 140.401 483.096 L 141.764 468.196 L 143.126 496.648 L 144.489 501.169 L 145.852 499.301 L 147.214 476.312 L 148.577 477.335 L 149.94 508.494 L 151.303 519.358 L 152.665 499.065 L 154.028 501.083 L 155.391 474.394 L 156.754 476.712 L 158.116 509.836 L 159.479 502.622 L 160.842 523.125 L 162.204 485.817 L 163.567 460.068 L 164.93 493.75 L 166.293 494.332 L 167.655 500.378 L 169.018 467.43 L 170.381 504.06 L 171.743 463.529 L 173.106 499.964 L 174.469 509.943 L 175.832 483.937 L 177.194 485.08 L 178.557 471.668 L 179.92 484.639 L 181.283 476.16 L 182.645 499.659 L 184.008 484.621 L 185.371 465.531 L 186.733 483.7 L 188.096 499.805 L 189.459 488.037 L 190.822 480.35 L 192.184 486.745 L 193.547 497.039 L 194.91 499.33 L 196.273 508.775 L 197.635 491.609 L 198.998 506.218 L 200.361 507.543 L 201.723 482.064 L 203.086 486.472 L 204.449 474.775 L 205.812 473.559 L 207.174 484.544 L 208.537 487.007 L 209.9 479.186 L 211.263 481.49 L 212.625 497.375 L 213.988 498.537 L 215.351 490.238 L 216.713 474.133 L 218.076 477.49 L 219.439 496.271 L 220.802 488.717 L 222.164 506.816 L 223.527 508.05 L 224.89 475.541 L 226.253 483.558 L 227.615 488.939 L 228.978 516.775 L 230.341 477.974 L 231.703 484.717 L 233.066 465.715 L 234.429 481.139 L 235.792 512.111 L 237.154 483.739 L 238.517 503.873 L 239.88 485.841 L 241.242 507.405 L 242.605 475.647 L 243.968 496.902 L 245.331 500.028 L 246.693 503.299 L 248.056 486.271 L 249.419 516.802 L 250.782 531.03 L 252.144 467.621 L 253.507 489.952 L 254.87 483.259 L 256.232 483.046 L 257.595 496.513 L 258.958 488.845 L 260.321 497.712 L 261.683 502.059 L 263.046 516.01 L 264.409 467.008 L 265.772 472.171 L 267.134 487.109 L 268.497 503.651 L 269.86 493.244 L 271.222 513.149 L 272.585 508.691 L 273.948 484.643 L 275.311 472.818 L 276.673 484.77 L 278.036 482.464 L 279.399 486.215 L 280.762 484.664 L 282.124 494.225 L 283.487 500.964 L 284.85 501.83 L 286.212 484.551 L 287.575 479.452 L 288.938 491.634 L 290.301 488.343 L 291.663 491.825 L 293.026 489.389 L 294.389 501.098 L 295.752 489.009 L 297.114 508.061 L 298.477 474.606 L 299.84 479.679 L 301.202 502.385 L 302.565 501.293 L 303.928 476.555 L 305.291 486.186 L 306.653 499.944 L 308.016 478.765 L 309.379 480.786 L 310.741 478.63 L 312.104 503.158 L 313.467 482.927 L 314.83 506.84 L 316.192 484.748 L 317.555 502.988 L 318.918 480.37 L 320.281 498.301 L 321.643 499.627 L 323.006 496.006 L 324.369 495.457 L 325.731 489.927 L 327.094 494.217 L 328.457 516.932 L 329.82 540 L 331.182 501.891 L 332.545 490.548 L 333.908 498.143 L 335.271 487.579 L 336.633 489.566 L 337.996 478.301 L 339.359 473.016 L 340.721 478.704 L 342.084 486.608 L 343.447 485.391 L 344.81 477.675 L 346.172 493.503 L 347.535 478.874 L 348.898 501.251 L 350.261 477.481 L 351.623 496.175 L 352.986 512.372 L 354.349 491.837 L 355.711 477.065 L 357.074 468.064 L 358.437 498.145 L 359.8 521.678 L 361.162 469.905 L 362.525 472.246 L 363.888 483.805 L 365.251 467.459 L 366.613 461.569 L 367.976 530.461 L 369.339 488.027 L 370.701 470.739 L 372.064 486.494 L 373.427 486.863 L 374.79 493.108 L 376.152 492.797 L 377.515 491.52 L 378.878 476.886 L 380.24 474.357 L 381.603 489.934 L 382.966 516.65 L 384.329 461.709 L 385.691 511.193 L 387.054 501.559 L 388.417 481.364 L 389.78 494.133 L 391.142 466.403 L 392.505 490.042 L 393.868 471.274 L 395.23 494.569 L 396.593 486.664 L 397.956 490.459 L 399.319 479.78 L 400.681 492.32 L 402.044 490.858 L 403.407 491.795 L 404.77 489.453 L 406.132 467.768 L 407.495 480.754 L 408.858 505.342 L 410.22 467.752 L 411.583 472.42 L 412.946 468.723 L 414.309 475.923 L 415.671 479.46 L 417.034 489.884 L 418.397 488.59 L 419.76 478.553 L 421.122 475.169 L 422.485 483.863 L 423.848 490.796 L 425.21 461.636 L 426.573 483.908 L 427.936 467.117 L 429.299 499.778 L 430.661 480.793 L 432.024 473.514 L 433.387 495.627 L 434.749 475.023 L 436.112 459.251 L 437.475 483.691 L 438.838 472.63 L 440.2 470.974 L 441.563 482.05 L 442.926 477.644 L 444.289 461.22 L 445.651 481.385 L 447.014 444.174 L 448.377 481.476 L 449.739 480.246 L 451.102 433.09 L 452.465 436.808 L 453.828 460.365 L 455.19 439.319 L 456.553 378.739 L 457.916 425.108 L 459.279 413.851 L 460.641 432.237 L 462.004 425.852 L 463.367 399.42 L 464.729 403.13 L 466.092 446.292 L 467.455 465.468 L 468.818 433.065 L 470.18 425.493 L 471.543 416.496 L 472.906 416.151 L 474.269 409.421 L 475.631 375.095 L 476.994 413.492 L 478.357 390.56 L 479.719 413.404 L 481.082 395.066 L 482.445 360.371 L 483.808 366.265 L 485.17 361.627 L 486.533 394.729 L 487.896 398.637 L 489.259 348.175 L 490.621 421.856 L 491.984 392.406 L 493.347 404.353 L 494.709 398.662 L 496.072 395.77 L 497.435 359.742 L 498.798 379.673 L 500.16 410.244 L 501.523 393.453 L 502.886 379.192 L 504.248 391.687 L 505.611 350.501 L 506.974 389.156 L 508.337 362.914 L 509.699 370.697 L 511.062 336.988 L 512.425 356.727 L 513.788 376.311 L 515.15 360.005 L 516.513 336.697 L 517.876 347.041 L 519.238 345.326 L 520.601 373.604 L 521.964 346.498 L 523.327 319.87 L 524.689 332.365 L 526.052 352.239 L 527.415 316.217 L 528.778 330.769 L 530.14 298.821 L 531.503 281.093 L 532.866 282.793 L 534.228 294.56 L 535.591 267.047 L 536.954 305.849 L 538.317 275.918 L 539.679 290.816 L 541.042 267.889 L 542.405 300.783 L 543.768 274.375 L 545.13 297.605 L 546.493 317.451 L 547.856 338.379 L 549.218 296.183 L 550.581 262.177 L 551.944 324.272 L 553.307 318.834 L 554.669 290.407 L 556.032 285.644 L 557.395 319.306 L 558.758 284.257 L 560.12 258.72 L 561.483 293.854 L 562.846 314.586 L 564.208 290.853 L 565.571 268.88 L 566.934 309.276 L 568.297 292.822 L 569.659 272.122 L 571.022 244.633 L 572.385 315.782 L 573.747 283.265 L 575.11 284.004 L 576.473 296.144 L 577.836 304.384 L 579.198 282.913 L 580.561 275.916 L 581.924 272.285 L 583.287 300.602 L 584.649 283.578 L 586.012 302.779 L 587.375 288.954 L 588.737 309.522 L 590.1 253.128 L 591.463 268.637 L 592.826 267.239 L 594.188 273.038 L 595.551 256.05 L 596.914 274.374 L 598.277 271.087 L 599.639 270.813 L 601.002 262.19 L 602.365 244.623 L 603.727 278.569 L 605.09 260.001 L 606.453 251.808 L 607.816 235.296 L 609.178 226.66 L 610.541 225.068 L 611.904 236.975 L 613.267 307.391 L 614.629 245.734 L 615.992 244.29 L 617.355 222.924 L 618.717 226.102 L 620.08 233.402 L 621.443 215.966 L 622.806 205.222 L 624.168 176.144 L 625.531 221.625 L 626.894 185.059 L 628.257 204.006 L 629.619 155.092 L 630.982 232.947 L 632.345 166.849 L 633.707 200.574 L 635.07 178.738 L 636.433 161.81 L 637.796 221.537 L 639.158 199.78 L 640.521 174.671 L 641.884 201.753 L 643.246 184.289 L 644.609 152.351 L 645.972 184.451 L 647.335 166.704 L 648.697 203.687 L 650.06 173.375 L 651.423 197.647 L 652.786 207.846 L 654.148 206.341 L 655.511 204.571 L 656.874 217.715 L 658.236 198.531 L 659.599 176.127 L 660.962 201.154 L 662.325 233.771 L 663.687 195.039 L 665.05 166.494 L 666.413 182.588 L 667.776 173.915 L 669.138 196.045 L 670.501 173.034 L 671.864 163.155 L 673.226 181.452 L 674.589 151.699 L 675.952 150.427 L 677.315 172.943 L 678.677 160.679 L 680.04 163.048 L 681.403 154.853 L 682.766 157.373 L 684.128 151.093 L 685.491 120.27 L 686.854 114.541 L 688.216 100.024 L 689.579 60 L 690.942 162.862 L 692.305 161.541 L 693.667 161.567 L 695.03 114.512 L 696.393 101.357 L 697.756 90.5156 L 699.118 150.043 L 700.481 110.558 L 701.844 81.7563 L 703.206 108.919 L 704.569 151.907 L 705.932 123.195 L 707.295 122.254 L 708.657 148.327 L 710.02 111.585 L 711.383 71.0434 L 712.745 89.8228 L 714.108 85.4869 L 715.471 123.579 L 716.834 118.343 L 718.196 115.743 L 719.559 135.421 L 720.922 110.619 L 722.285 136.448 L 723.647 136.506 L 725.01 181.886 L 726.373 146.229 L 727.735 129.978 L 729.098 139.459 L 730.461 97.6487 L 731.824 132.469 L 733.186 165.146 L 734.549 133.381 L 735.912 161.975 L 737.275 142.975 L 738.637 124.206 L 740 156.06" fill="none" stroke="blue" stroke-width="2" />
<text x="60" y="560" text-anchor="middle" font-size="12">0</text>
<text x="55" y="545" text-anchor="end" font-size="12">2.8e-01</text>
<text x="2.0e+02" y="5.6e+02" text-anchor="middle" font-size="12">99</text>
<text x="5.5e+01" y="4.5e+02" text-anchor="end" font-size="12">1.2e+01</text>
<text x="3.3e+02" y="5.6e+02" text-anchor="middle" font-size="12">199</text>
<text x="5.5e+01" y="3.5e+02" text-anchor="end" font-size="12">4.7e+02</text>
<text x="4.7e+02" y="5.6e+02" text-anchor="middle" font-size="12">299</text>
<text x="5.5e+01" y="2.6e+02" text-anchor="end" font-size="12">1.9e+04</text>
<text x="6.0e+02" y="5.6e+02" text-anchor="middle" font-size="12">399</text>
<text x="5.5e+01" y="1.6e+02" text-anchor="end" font-size="12">7.7e+05</text>
<text x="7.4e+02" y="5.6e+02" text-anchor="middle" font-size="12">499</text>
<text x="5.5e+01" y="6.5e+01" text-anchor="end" font-size="12">3.1e+07</text>
</svg>
