<svg width="800" height="500" xmlns="http://www.w3.org/2000/svg">
<rect width="100%" height="100%" fill="white" />
<line x1="60" y1="440" x2="740" y2="440" stroke="black" />
<line x1="60" y1="60" x2="60" y2="440" stroke="black" />
<text x="400.0" y="480" font-family="Arial" font-size="14" text-anchor="middle">Training Steps</text>
<text x="20" y="250.0" font-family="Arial" font-size="14" text-anchor="middle" transform="rotate(-90 20,250.0)">MSE Loss</text>
<line x1="60" y1="440.0" x2="740" y2="440.0" stroke="#ddd" stroke-dasharray="4" />
<text x="55" y="445.0" font-family="Arial" font-size="10" text-anchor="end">0.00</text>
<line x1="60" y1="345.0" x2="740" y2="345.0" stroke="#ddd" stroke-dasharray="4" />
<text x="55" y="350.0" font-family="Arial" font-size="10" text-anchor="end">0.89</text>
<line x1="60" y1="250.0" x2="740" y2="250.0" stroke="#ddd" stroke-dasharray="4" />
<text x="55" y="255.0" font-family="Arial" font-size="10" text-anchor="end">1.79</text>
<line x1="60" y1="155.0" x2="740" y2="155.0" stroke="#ddd" stroke-dasharray="4" />
<text x="55" y="160.0" font-family="Arial" font-size="10" text-anchor="end">2.68</text>
<line x1="60" y1="60.0" x2="740" y2="60.0" stroke="#ddd" stroke-dasharray="4" />
<text x="55" y="65.0" font-family="Arial" font-size="10" text-anchor="end">3.57</text>
<polyline points="60.0,123.48884937912106 63.417085427135675,164.4652881802018 66.83417085427135,147.33759852165025 70.25125628140704,228.60847531183936 73.66834170854271,92.93287228234237 77.08542713567839,280.93634416429836 80.50251256281408,355.20410466044154 83.91959798994975,97.85796082933172 87.33668341708542,233.43567918690763 90.7537688442211,338.7212834763618 94.17085427135677,283.16854026963085 97.58793969849246,311.5902059329983 101.00502512562814,256.20024919152746 104.42211055276383,292.1824417969789 107.8391959798995,265.8046506418782 111.25628140703517,338.2530329968781 114.67336683417085,377.94058602007533 118.09045226130652,332.3587798014867 121.5075376884422,356.571298175862 124.92462311557789,307.2279542495555 128.34170854271355,314.77464966191144 131.75879396984925,334.36807548543345 135.17587939698493,342.7418963755232 138.5929648241206,347.3982276602595 142.01005025125627,324.1907295151965 145.42713567839195,366.86525458134423 148.84422110552765,373.0760370147415 152.2613065326633,368.2624518766362 155.678391959799,344.9407904131259 159.09547738693465,335.80793773011715 162.51256281407035,314.5714325712926 165.92964824120602,383.79270624798755 169.3467336683417,327.38155702706104 172.7638190954774,300.65691366493536 176.18090452261305,355.82290602119525 179.59798994974875,311.1965393176632 183.0150753768844,325.7441167000322 186.4321608040201,391.29056572076547 189.84924623115577,294.8859738768882 193.26633165829145,338.7933138273298 196.68341708542712,381.85331298735844 200.1005025125628,401.08637426327505 203.51758793969847,386.7060519942322 206.93467336683418,378.3819182147807 210.35175879396985,374.9208438913077 213.76884422110552,376.72660329548796 217.1859296482412,357.53535579790287 220.60301507537687,373.63802270722795 224.02010050251255,384.9382760986126 227.43718592964822,381.8200109196287 230.8542713567839,373.8016603435483 234.2713567839196,385.31300415785864 237.68844221105527,313.3085075107446 241.10552763819095,380.79254105360417 244.52261306532662,357.1788215200683 247.9396984924623,344.3206058993994 251.35678391959797,389.95890859710767 254.77386934673365,296.7808934496227 258.1909547738693,348.02405118225977 261.608040201005,399.93112234184036 265.0251256281407,374.302255323319 268.4422110552764,391.62305441614984 271.85929648241205,380.6923156612675 275.2763819095477,363.0894597583682 278.6934673366834,403.53785331298735 282.1105527638191,289.80448264758996 285.5276381909548,393.7790707115958 288.94472361809045,339.70076857386846 292.3618090452261,411.8033626856687 295.7788944723618,395.9547703378085 299.1959798994975,398.31783399364423 302.61306532663315,418.2055522112248 306.0301507537688,402.37462166286343 309.4472361809045,405.2398762442077 312.8643216080402,367.1430555361118 316.28140703517585,360.18185941677984 319.69849246231155,354.16716551637245 323.1155778894472,368.5780235471994 326.5326633165829,412.71379653091793 329.9497487437186,395.26372583332164 333.36683417085425,411.21786339264463 336.78391959798995,379.03859668771264 340.2010050251256,363.1320183113774 343.6180904522613,400.5841833377665 347.03517587939695,407.0871302375719 350.45226130653265,406.70144335092607 353.86934673366835,420.0174826055914 357.286432160804,416.5553443182932 360.7035175879397,371.1408996094133 364.12060301507535,397.2878106144391 367.53768844221105,413.45644328092845 370.9547738693467,416.86048914336914 374.3718592964824,406.5013117554003 377.78894472361804,395.600683176772 381.20603015075375,415.1319735129006 384.62311557788945,369.4821800058798 388.0402010050251,390.7864596603715 391.4572864321608,379.43162492475255 394.87437185929645,425.42922820624096 398.29145728643215,405.2879674091081 401.7085427135678,374.86785849281125 405.1256281407035,375.986297265893 408.5427135678392,414.4942335960577 411.95979899497485,382.0831291736081 415.37688442211055,391.5886883845949 418.7939698492462,412.4444008903697 422.2110552763819,399.0428189441559 425.62814070351754,390.80646218028585 429.04522613065325,342.35174084081143 432.46231155778895,416.08060365947557 435.8793969849246,421.6924808556509 439.2964824120603,419.1957833433663 442.71356783919595,384.30628158642605 446.13065326633165,389.7098346656214 449.5477386934673,417.4725875320239 452.964824120603,411.32394058602006 456.38190954773864,428.57462446276827 459.79899497487435,384.3725665327379 463.21608040201005,422.84166818328174 466.6331658291457,410.91442090968906 470.0502512562814,411.1091262897061 473.46733668341705,366.1758060225952 476.88442211055275,420.7994960171354 480.3015075376884,402.8751102462516 483.7185929648241,412.2068177681959 487.1356783919598,408.72201705142027 490.55276381909545,331.0979826685892 493.96984924623115,405.3296747910571 497.3869346733668,414.4357155856701 500.8040201005025,416.7978216740631 504.22110552763814,415.06058154022764 507.63819095477385,421.09495877140176 511.05527638190955,420.8590779913483 514.4723618090452,413.55634948411756 517.8894472361809,412.9565930758354 521.3065326633166,416.54566224748356 524.7236180904522,428.6971930954347 528.1407035175879,407.54825215942657 531.5577889447236,381.49911942993936 534.9748743718592,418.7954137559323 538.391959798995,411.9109294283994 541.8090452261306,413.46484859514777 545.2261306532663,412.4129075611429 548.643216080402,424.38196861306716 552.0603015075376,416.9982724587364 555.4773869346734,432.1481172040151 558.894472361809,427.53385504892833 562.3115577889447,420.156755470314 565.7286432160804,421.48085845081266 569.145728643216,426.7100278590528 572.5628140703517,417.1478657725637 575.9798994974874,426.03749632512495 579.3969849246231,424.28036006775767 582.8140703517588,425.6999006033795 586.2311557788944,425.35911299015834 589.6482412060301,426.85919558735003 593.0653266331658,427.61812098388657 596.4824120603015,425.5324326972883 599.8994974874372,413.4302697708278 603.3165829145728,432.5735644188098 606.7336683417085,410.4718119583934 610.1507537688442,423.3207710937828 613.5678391959799,431.2405135025409 616.9849246231156,430.57514244515687 620.4020100502512,424.80489423359603 623.8190954773869,421.9825173944086 627.2361809045226,421.3073259509177 630.6532663316583,416.2339208466912 634.0703517587939,425.19015553471183 637.4874371859296,391.30067337710517 640.9045226130653,420.966431941314 644.321608040201,424.68636866346543 647.7386934673367,429.46610911229016 651.1557788944723,421.43404404250253 654.572864321608,426.058456412482 657.9899497487437,426.29572034550824 661.4070351758794,393.32241743780713 664.824120603015,416.50565720765496 668.2412060301507,428.6099480617659 671.6582914572864,429.1883187971609 675.0753768844221,431.0395945737845 678.4924623115578,417.47982248603546 681.9095477386934,428.97275972616933 685.3266331658291,411.0089008973695 688.7437185929648,393.31975752824405 692.1608040201005,425.0902493315227 695.5778894472361,424.17087819014154 698.9949748743718,418.4143019137349 702.4120603015075,429.38656717671597 705.8291457286432,425.72192465456175 709.2462311557789,418.40876930184373 712.6633165829145,417.97243773711693 716.0804020100502,417.53706373983283 719.4974874371859,419.97503044896473 722.9145728643216,428.86083073175513 726.3316582914573,425.676812588372 729.7487437185929,428.7829485797483 733.1658291457286,426.7484369531436 736.5829145728643,401.39917962789264 740.0,426.58533129873587" fill="none" stroke="#e74c3c" stroke-width="2" />
<polyline points="60.0,193.5508672705128 63.417085427135675,318.61343114334113 66.83417085427135,261.4200557181056 70.25125628140704,295.94142599151627 73.66834170854271,251.14429309403477 77.08542713567839,306.98324256975263 80.50251256281408,334.6958827399868 83.91959798994975,352.56026095112765 87.33668341708542,180.62689868544464 90.7537688442211,354.81001245957634 94.17085427135677,175.48050566280745 97.58793969849246,288.1808738502891 101.00502512562814,308.4483207570943 104.42211055276383,351.7347314191317 107.8391959798995,289.2831403732273 111.25628140703517,221.75654827735855 114.67336683417085,234.66774929652388 118.09045226130652,392.4838011507609 121.5075376884422,388.87792135067406 124.92462311557789,356.99028713023756 128.34170854271355,330.6543097534684 131.75879396984925,325.6792149066931 135.17587939698493,362.97955229522194 138.5929648241206,355.93515420475705 142.01005025125627,405.84303733673056 145.42713567839195,245.00947767775892 148.84422110552765,410.00324228976217 152.2613065326633,370.71797398888435 155.678391959799,410.24859234786015 159.09547738693465,391.86787249233527 162.51256281407035,419.48741582786187 165.92964824120602,414.42677828953816 169.3467336683417,337.43793031036944 172.7638190954774,412.0661617505005 176.18090452261305,343.04980750654477 179.59798994974875,404.0399378421134 183.0150753768844,406.0687040640618 186.4321608040201,402.59656451680644 189.84924623115577,410.45627808654507 193.26633165829145,377.02270442804945 196.68341708542712,373.41395192563454 200.1005025125628,399.6134227436267 203.51758793969847,418.1471405972197 206.93467336683418,423.02073329506794 210.35175879396985,428.4025815122286 213.76884422110552,419.9984376531198 217.1859296482412,360.2353767971889 220.60301507537687,395.5257801234758 224.02010050251255,411.72505494813174 227.43718592964822,407.8333944645882 230.8542713567839,399.51500608979296 234.2713567839196,390.4167322311041 237.68844221105527,413.54464588204 241.10552763819095,404.40434545225463 244.52261306532662,410.5967213114754 247.9396984924623,369.5721913454943 251.35678391959797,421.8104744438689 254.77386934673365,393.00833531659924 258.1909547738693,377.2598619646932 261.608040201005,416.957309851465 265.0251256281407,414.5166832327701 268.4422110552764,397.2724895353558 271.85929648241205,407.7964749198527 275.2763819095477,388.4389298763842 278.6934673366834,388.1414455908499 282.1105527638191,418.6145399056432 285.5276381909548,396.0758494211197 288.94472361809045,280.38095504752835 292.3618090452261,395.66569136649355 295.7788944723618,417.21138441293 299.1959798994975,391.961607705338 302.61306532663315,390.0705184023743 306.0301507537688,369.1101118561969 309.4472361809045,397.52358499811004 312.8643216080402,409.21537707717937 316.28140703517585,412.0783973344906 319.69849246231155,418.93170752194425 323.1155778894472,403.6754238355896 326.5326633165829,369.80445464854193 329.9497487437186,411.25457014461506 333.36683417085425,360.07365429575395 336.78391959798995,399.5642676149011 340.2010050251256,390.4813148352956 343.6180904522613,396.75178563928824 347.03517587939695,398.6447900771374 350.45226130653265,376.4137979308703 353.86934673366835,415.62607831333736 357.286432160804,398.3432627290672 360.7035175879397,415.0659013593538 364.12060301507535,379.6722935420196 367.53768844221105,413.48293598017665 370.9547738693467,326.82403998264056 374.3718592964824,405.91900435385196 377.78894472361804,398.8198121263877 381.20603015075375,411.32809004493845 384.62311557788945,429.3063123853789 388.0402010050251,400.1649815906259 391.4572864321608,335.1264689000574 394.87437185929645,417.13445982836583 398.29145728643215,359.21120521902253 401.7085427135678,390.23681594825774 405.1256281407035,417.096050734275 408.5427135678392,423.08425193543417 411.95979899497485,408.38888997774075 415.37688442211055,385.2501238957875 418.7939698492462,388.17740756814266 422.2110552763819,395.72314541305593 425.62814070351754,391.9827805854601 429.04522613065325,405.7075947417788 432.46231155778895,413.4168638266299 435.8793969849246,400.306595175764 439.2964824120603,403.8406574176478 442.71356783919595,403.293460822332 446.13065326633165,409.049505116826 449.5477386934673,384.12987638420293 452.964824120603,420.8423737592922 456.38190954773864,364.66699892203667 459.79899497487435,426.5727765255981 463.21608040201005,415.78439613053155 466.6331658291457,380.0473407904131 470.0502512562814,425.22590471923957 473.46733668341705,395.16318125183744 476.88442211055275,353.570813792331 480.3015075376884,387.325066147751 483.7185929648241,398.38401254357353 487.1356783919598,345.48447592781844 490.55276381909545,369.6423065615769 493.96984924623115,403.6259495177164 497.3869346733668,387.6344668281278 500.8040201005025,409.18462852263025 504.22110552763814,411.1457266452941 507.63819095477385,397.97555683106776 511.05527638190955,402.06085873080315 514.4723618090452,398.4576388402794 517.8894472361809,391.4744186697652 521.3065326633166,394.6566280746455 524.7236180904522,422.20371547367387 528.1407035175879,396.57176296005935 531.5577889447236,421.9391076703392 534.9748743718592,420.68437513124553 538.391959798995,412.04083941146 541.8090452261306,386.97289412159984 545.2261306532663,411.15221682462794 548.643216080402,356.8107964329213 552.0603015075376,404.1250549481318 555.4773869346734,356.34488667385307 558.894472361809,365.9275832621691 562.3115577889447,372.8429225406336 565.7286432160804,412.95489073371505 569.145728643216,393.06951323654994 572.5628140703517,412.29544595483753 575.9798994974874,375.431333734653 579.3969849246231,387.2419705730005 582.8140703517588,402.550707675939 586.2311557788944,358.4486623454802 589.6482412060301,418.8052022231244 593.0653266331658,393.57159776567596 596.4824120603015,426.16612955159525 599.8994974874372,396.1461774299674 603.3165829145728,397.81734541025605 606.7336683417085,357.6170682196805 610.1507537688442,332.2704708039927 613.5678391959799,420.0512102588512 616.9849246231156,401.48653105794403 620.4020100502512,396.37695118365974 623.8190954773869,388.68576948383753 627.2361809045226,398.07684618722965 630.6532663316583,392.23611037224737 634.0703517587939,398.7188419593734 637.4874371859296,398.2196301325755 640.9045226130653,415.02781145441054 644.321608040201,374.75497193095435 647.7386934673367,417.422155646708 651.1557788944723,390.3248057566043 654.572864321608,394.24104380451064 657.9899497487437,401.88275118645964 661.4070351758794,363.6814492307261 664.824120603015,386.26674133079473 668.2412060301507,421.7178031946914 671.6582914572864,419.11960353347985 675.0753768844221,368.5920678696924 678.4924623115578,395.74389270764794 681.9095477386934,406.98743682714786 685.3266331658291,365.77522364239616 688.7437185929648,384.9326370903389 692.1608040201005,394.8100516582436 695.5778894472361,398.4102924500567 698.9949748743718,397.8439445058868 702.4120603015075,414.6526578096345 705.8291457286432,384.0847643180132 709.2462311557789,411.4975794822976 712.6633165829145,419.90661757500243 716.0804020100502,421.2731727121278 719.4974874371859,373.1978608727303 722.9145728643216,388.31561646904004 726.3316582914573,390.42428637426326 729.7487437185929,403.53317187215634 733.1658291457286,412.41599305623606 736.5829145728643,400.55981856616876 740.0,417.80369307443544" fill="none" stroke="#f1c40f" stroke-width="2" />
<polyline points="60.0,88.50678276938578 63.417085427135675,119.47238593887806 66.83417085427135,197.98653245789637 70.25125628140704,60.0 73.66834170854271,204.16709831865717 77.08542713567839,304.7287032240904 80.50251256281408,326.0218112584172 83.91959798994975,247.23848189161566 87.33668341708542,271.5936778149543 90.7537688442211,278.4466688132603 94.17085427135677,173.00678976914782 97.58793969849246,214.14601503548877 101.00502512562814,271.1425571530568 104.42211055276383,246.1447270792793 107.8391959798995,169.3967605101426 111.25628140703517,326.44526886085873 114.67336683417085,338.11876076213406 118.09045226130652,290.21198079265304 121.5075376884422,323.99176827987844 124.92462311557789,284.3314527306071 128.34170854271355,245.38399294423988 131.75879396984925,301.0016379443099 135.17587939698493,406.90721395472553 138.5929648241206,342.8963839229466 142.01005025125627,364.68338396494516 145.42713567839195,329.3903207290952 148.84422110552765,345.93240469824025 152.2613065326633,401.02200445184866 155.678391959799,369.982881382033 159.09547738693465,378.9336898545449 162.51256281407035,330.10636838347494 165.92964824120602,398.8901401352354 169.3467336683417,406.4990774313673 172.7638190954774,388.55394436589154 176.18090452261305,390.97573882487995 179.59798994974875,401.2040486623455 183.0150753768844,396.41780739454856 186.4321608040201,412.69294283994344 189.84924623115577,383.0321849057132 193.26633165829145,394.60108916296844 196.68341708542712,419.6626506698772 200.1005025125628,352.46780249471516 203.51758793969847,410.44191457490444 206.93467336683418,422.5822738026907 210.35175879396985,401.90913748932536 213.76884422110552,401.255012529574 217.1859296482412,414.59722529434 220.60301507537687,372.4292534053842 224.02010050251255,373.10806232588095 227.43718592964822,405.51267656899665 230.8542713567839,325.3461942293962 234.2713567839196,418.82807744536683 237.68844221105527,398.69639232266104 241.10552763819095,401.06498859038794 244.52261306532662,405.62875502232924 247.9396984924623,401.8937100138595 251.35678391959797,375.4011171620165 254.77386934673365,259.340006439781 258.1909547738693,384.7746384622923 261.608040201005,389.3643656115692 265.0251256281407,387.75065167784294 268.4422110552764,405.33020677296975 271.85929648241205,316.9249205527012 275.2763819095477,386.9648079965281 278.6934673366834,388.44829275804625 282.1105527638191,345.6554549145329 285.5276381909548,401.68879058112026 288.94472361809045,390.1423359605773 292.3618090452261,406.1403088294998 295.7788944723618,384.56525038148703 299.1959798994975,404.16676233008076 302.61306532663315,405.9554983130574 306.0301507537688,371.4269994820176 309.4472361809045,380.8856378883118 312.8643216080402,385.6774117679999 316.28140703517585,417.12243703714074 319.69849246231155,406.65101146561017 323.1155778894472,388.94803656675674 326.5326633165829,386.82755666307344 329.9497487437186,396.68422393638616 333.36683417085425,409.026097912671 336.78391959798995,415.0087665019389 340.2010050251256,366.37072419537736 343.6180904522613,389.324041382593 347.03517587939695,374.9463790231132 350.45226130653265,379.19691450490683 353.86934673366835,346.1821170080217 357.286432160804,415.6976830787753 360.7035175879397,419.3256933264269 364.12060301507535,401.5631364533606 367.53768844221105,419.8971482969579 370.9547738693467,347.1835197603281 374.3718592964824,385.33481541627583 377.78894472361804,371.65266620934887 381.20603015075375,376.2723971384973 384.62311557788945,392.11726561296916 388.0402010050251,401.4623790791113 391.4572864321608,416.5587490025339 394.87437185929645,426.5963965225182 398.29145728643215,412.36534837815515 401.7085427135678,322.3862468676065 405.1256281407035,397.88597107698337 408.5427135678392,363.4572720527502 411.95979899497485,415.05196343324326 415.37688442211055,422.525777323571 418.7939698492462,404.24996430121377 422.2110552763819,404.5686214668701 425.62814070351754,405.88336156570676 429.04522613065325,404.3447634780417 432.46231155778895,412.54271114782097 435.8793969849246,368.7814534305834 439.2964824120603,336.5353697974269 442.71356783919595,411.70026459100393 446.13065326633165,419.98056306085596 449.5477386934673,371.87790735115004 452.964824120603,394.89208326916884 456.38190954773864,377.8054626142711 459.79899497487435,393.63947865772565 463.21608040201005,314.77039380661057 466.6331658291457,374.67059959961364 470.0502512562814,359.5495457154457 473.46733668341705,393.38859598773644 476.88442211055275,392.35229522196244 480.3015075376884,405.9243241729781 483.7185929648241,394.83154372751324 487.1356783919598,385.3288572188546 490.55276381909545,382.73257269252844 493.96984924623115,415.41743500720975 497.3869346733668,380.57219414539907 500.8040201005025,362.72281782419395 504.22110552763814,405.36318965155186 507.63819095477385,406.84529126009716 511.05527638190955,406.00550461284314 514.4723618090452,419.874592263863 517.8894472361809,404.54840615419073 521.3065326633166,398.58127143677115 524.7236180904522,387.2600579580294 528.1407035175879,345.52192745446655 531.5577889447236,373.33968725063346 534.9748743718592,397.6839243465722 538.391959798995,378.5418319777128 541.8090452261306,397.98981394632585 545.2261306532663,408.8563956825468 548.643216080402,388.3875404236256 552.0603015075376,420.11728241239797 555.4773869346734,405.8765521972253 558.894472361809,398.6057426047514 562.3115577889447,404.93015637468324 565.7286432160804,414.10503562878864 569.145728643216,419.3390992706248 572.5628140703517,414.03438843079334 575.9798994974874,422.33309347482185 579.3969849246231,418.68837899511414 582.8140703517588,415.4245635648388 586.2311557788944,404.7974800856771 589.6482412060301,381.20333748652547 593.0653266331658,388.93601377553165 596.4824120603015,413.53432543293525 599.8994974874372,364.2713107754336 603.3165829145728,411.7714437709118 606.7336683417085,414.75309599473616 610.1507537688442,391.17512564572803 613.5678391959799,418.84903753272386 616.9849246231156,362.77814394310593 620.4020100502512,403.5606221388473 623.8190954773869,385.465044588484 627.2361809045226,401.981274236676 630.6532663316583,416.5285324298974 634.0703517587939,428.8575324438969 637.4874371859296,390.54536545757446 640.9045226130653,419.39804286654254 644.321608040201,360.1929246405622 647.7386934673367,419.6397754476348 651.1557788944723,388.2963587238034 654.572864321608,425.0674805056628 657.9899497487437,397.2928112444177 661.4070351758794,418.8509526676093 664.824120603015,415.79035432795285 668.2412060301507,407.254172558133 671.6582914572864,420.39667931290336 675.0753768844221,361.50287690218533 678.4924623115578,387.9045008469712 681.9095477386934,383.53575898419456 685.3266331658291,389.1694474387871 688.7437185929648,412.6520866290546 692.1608040201005,412.57314051322254 695.5778894472361,417.1596757710238 698.9949748743718,397.1919474737859 702.4120603015075,410.88856658873596 705.8291457286432,405.71706401982334 709.2462311557789,415.96399322423036 712.6633165829145,421.1248561548907 716.0804020100502,421.651411851997 719.4974874371859,405.60481583626154 722.9145728643216,414.8914112920161 726.3316582914573,415.020576500399 729.7487437185929,406.80815892259665 733.1658291457286,416.13986644454087 736.5829145728643,424.7957441446991 740.0,402.74903053296185" fill="none" stroke="#3498db" stroke-width="2" />
<rect x="600" y="50" width="15" height="15" fill="#e74c3c" />
<text x="620" y="62" font-family="Arial" font-size="12">Baseline (He Init, No PE)</text>
<rect x="600" y="70" width="15" height="15" fill="#f1c40f" />
<text x="620" y="82" font-family="Arial" font-size="12">Identity Init, No PE</text>
<rect x="600" y="90" width="15" height="15" fill="#3498db" />
<text x="620" y="102" font-family="Arial" font-size="12">Identity Init + Pos Emb</text>
<text x="400.0" y="30" font-family="Arial" font-size="16" text-anchor="middle" font-weight="bold">Zenith Ablation Study (2000 Steps)</text>
</svg>