<svg width="800" height="500" xmlns="http://www.w3.org/2000/svg">
<rect width="100%" height="100%" fill="white" />
<line x1="60" y1="440" x2="740" y2="440" stroke="black" />
<line x1="60" y1="60" x2="60" y2="440" stroke="black" />
<text x="400.0" y="480" font-family="Arial" font-size="14" text-anchor="middle">Training Steps</text>
<text x="20" y="250.0" font-family="Arial" font-size="14" text-anchor="middle" transform="rotate(-90 20,250.0)">MSE Loss</text>
<line x1="60" y1="440.0" x2="740" y2="440.0" stroke="#ddd" stroke-dasharray="4" />
<text x="55" y="445.0" font-family="Arial" font-size="10" text-anchor="end">0.00</text>
<line x1="60" y1="345.0" x2="740" y2="345.0" stroke="#ddd" stroke-dasharray="4" />
<text x="55" y="350.0" font-family="Arial" font-size="10" text-anchor="end">0.94</text>
<line x1="60" y1="250.0" x2="740" y2="250.0" stroke="#ddd" stroke-dasharray="4" />
<text x="55" y="255.0" font-family="Arial" font-size="10" text-anchor="end">1.89</text>
<line x1="60" y1="155.0" x2="740" y2="155.0" stroke="#ddd" stroke-dasharray="4" />
<text x="55" y="160.0" font-family="Arial" font-size="10" text-anchor="end">2.83</text>
<line x1="60" y1="60.0" x2="740" y2="60.0" stroke="#ddd" stroke-dasharray="4" />
<text x="55" y="65.0" font-family="Arial" font-size="10" text-anchor="end">3.77</text>
<polyline points="60.0,169.37990520472226 64.56375838926175,114.97165955392649 69.12751677852349,69.5175625890198 73.69127516778524,245.33394514393024 78.25503355704697,291.9894542242781 82.81879194630872,97.35867573065838 87.38255033557047,294.16650973548036 91.94630872483222,303.21842434015963 96.51006711409396,271.399145410227 101.0738255033557,275.64742734528136 105.63758389261744,356.44269447752527 110.20134228187919,296.33650997419255 114.76510067114094,262.69999443004804 119.32885906040269,339.3412179097827 123.89261744966443,341.1819385024256 128.4563758389262,295.34272444917156 133.0201342281879,232.98923407855756 137.58389261744966,169.04629160555197 142.1476510067114,360.42519421892035 146.71140939597313,304.11142025818054 151.27516778523488,339.0249401230164 155.83892617449663,302.91907920736935 160.40268456375838,250.20813053845524 164.96644295302013,352.34126299987 169.53020134228188,356.52211668784133 174.09395973154363,245.03157632292994 178.65771812080538,356.5501361985874 183.22147651006713,363.5840412919106 187.78523489932886,346.3590974555929 192.3489932885906,329.89541752094703 196.91275167785236,387.64241969322825 201.4765100671141,369.3574715600905 206.04026845637583,348.34616455759993 210.60402684563758,356.58329597929037 215.16778523489933,382.8776918119054 219.73154362416108,359.72853645533564 224.29530201342283,287.7028722385637 228.85906040268458,265.2792004731807 233.4228187919463,372.78915609923 237.98657718120805,356.3844380846792 242.5503355704698,363.2999153897773 247.11409395973155,362.989281821003 251.6778523489933,323.41061420656035 256.2416107382551,387.99669516183366 260.80536912751677,385.07651787821965 265.3691275167785,312.71683690384936 269.93288590604027,379.2805107380717 274.496644295302,389.6425894441453 279.06040268456377,379.0449654265125 283.6241610738255,350.29997108929695 288.18791946308727,395.7321967094846 292.75167785234896,399.6461595181196 297.31543624161077,380.3518034708758 301.87919463087246,377.73822817175613 306.44295302013427,404.59724738278567 311.00671140939596,385.65384074711625 315.5704697986577,318.50316824172535 320.13422818791946,299.61116430562595 324.6979865771812,393.24853921378804 329.26174496644296,383.1910467000687 333.8255033557047,383.3091721194728 338.38926174496646,378.07446230070843 342.9530201342282,355.54193775976535 347.51677852348996,407.29830806078144 352.08053691275165,403.15121889115517 356.6442953020134,335.8188227243431 361.20805369127515,397.5220185505924 365.7718120805369,403.6569811390817 370.33557046979865,390.18645016351786 374.8993288590604,371.95461815326917 379.46308724832215,414.8169103741682 384.0268456375839,415.48020677783586 388.59060402684565,401.65469480641764 393.1543624161074,395.5898817844004 397.71812080536915,420.9899714341035 402.2818791946309,402.8577195555709 406.8456375838926,358.20621023120606 411.40939597315435,328.894576723436 415.9731543624161,407.4421348299706 420.53691275167785,398.9629067722659 425.1006711409396,399.63950740405755 429.66442953020135,401.68936643122566 434.2281879194631,380.28709654318175 438.79194630872485,419.4721807422889 443.3557046979866,413.5914095426539 447.91946308724835,360.2671561151442 452.4832214765101,415.30503444086963 457.04697986577185,415.59974325173795 461.61073825503354,403.62603872973267 466.1744966442953,382.0647228418425 470.73825503355704,423.40055646472496 475.3020134228188,418.70527262262516 479.86577181208054,408.27274198125843 484.4295302013423,404.1601228572262 488.99328859060404,416.67325335589607 493.5570469798658,413.0129779880803 498.12080536912754,373.47009068412274 502.6845637583893,350.9152916400326 507.24832214765104,413.706914432276 511.81208053691273,404.1354294035112 516.3758389261745,408.1707428989743 520.9395973154362,412.4488585577007 525.5033557046979,391.9447248576347 530.0671140939597,425.5730764436122 534.6308724832215,413.26202910697754 539.1946308724832,380.80636459844624 543.7583892617449,419.8297822679253 548.3221476510067,419.56067401723504 552.8859060402685,413.03444617437134 557.4496644295302,401.25466085623424 562.0134228187919,424.1251329494487 566.5771812080536,423.6302559790782 571.1409395973154,419.4585741453439 575.7046979865772,410.07294515188727 580.2684563758389,424.6971139691743 584.8322147651007,417.54216055784394 589.3959731543624,393.0808253077399 593.9597315436241,368.3926126522785 598.5234899328859,416.75116372210715 603.0872483221476,412.8220824724221 607.6510067114094,412.74024131153806 612.2147651006711,415.12361314826944 616.7785234899329,402.7678152261268 621.3422818791946,424.0378491497866 625.9060402684564,422.9454913891195 630.4697986577181,385.2397970415598 635.0335570469799,421.5814048479801 639.5973154362416,420.8868636661424 644.1610738255033,415.5612416218639 648.7248322147651,396.72205143983257 653.2885906040268,431.39451280160625 657.8523489932886,428.33975115576504 662.4161073825503,419.71589001201517 666.9798657718121,407.7572031414529 671.5436241610738,426.2784021133989 676.1073825503356,422.8600218023834 680.6711409395973,399.093832471759 685.2348993288591,370.04939221214624 689.7986577181208,411.84492723255613 694.3624161073826,417.83676857910524 698.9261744966443,409.06555302992126 703.489932885906,420.95771875986344 708.0536912751678,406.6568830018328 712.6174496644295,428.8757502857916 717.1812080536913,424.1059829241187 721.744966442953,400.2120931614252 726.3087248322148,426.7943441116324 730.8724832214765,425.93440718470754 735.4362416107383,413.1915771716845 740.0,412.06353989013934" fill="none" stroke="#e74c3c" stroke-width="2" />
<polyline points="60.0,213.01374186720707 64.56375838926175,165.9984138898688 69.12751677852349,87.45105736254823 73.69127516778524,262.21922800465757 78.25503355704697,307.9434411163245 82.81879194630872,101.0828517093122 87.38255033557047,301.604782732088 91.94630872483222,318.42455234826525 96.51006711409396,278.9271211570647 101.0738255033557,285.7132853963817 105.63758389261744,359.8826437644388 110.20134228187919,292.14870180333827 114.76510067114094,257.5546849926928 119.32885906040269,374.7709821416731 123.89261744966443,349.0055301665946 128.4563758389262,294.7067420290009 133.0201342281879,228.37609376616282 137.58389261744966,138.24095612204036 142.1476510067114,386.04732337284463 146.71140939597313,319.29033507239615 151.27516778523488,387.72728454232237 155.83892617449663,315.92900167894265 160.40268456375838,266.1097068348615 164.96644295302013,371.0242292910512 169.53020134228188,393.25791264723904 174.09395973154363,268.63851807449413 178.65771812080538,398.18773390482806 183.22147651006713,402.954376788684 187.78523489932886,380.3621848003968 192.3489932885906,351.269768687852 196.91275167785236,420.45588730660995 201.4765100671141,389.37317882463407 206.04026845637583,384.87241892404444 210.60402684563758,390.4996034724672 215.16778523489933,421.2902236733568 219.73154362416108,398.57617705020647 224.29530201342283,336.95270580309426 228.85906040268458,299.7784750532461 233.4228187919463,396.60342207239347 237.98657718120805,383.8742994459224 242.5503355704698,380.52475843648796 247.11409395973155,387.50212056028414 251.6778523489933,372.1770608159184 256.2416107382551,418.58230930208504 260.80536912751677,404.2587958824793 265.3691275167785,345.6944907870342 269.93288590604027,410.63887879519285 274.496644295302,391.6643281709604 279.06040268456377,398.101558790843 283.6241610738255,366.4497921877445 288.18791946308727,409.78831530171897 292.75167785234896,419.561782702912 297.31543624161077,404.4166324070415 301.87919463087246,373.8129769271371 306.44295302013427,426.49308397630915 311.00671140939596,407.12152309010327 315.5704697986577,343.58113430745607 320.13422818791946,317.83594104338465 324.6979865771812,394.97133596624076 329.26174496644296,393.08788058022986 333.8255033557047,376.2121727321675 338.38926174496646,397.8451500306347 342.9530201342282,376.0892094116274 347.51677852348996,425.8830044851375 352.08053691275165,399.46463743591244 356.6442953020134,346.6080477848832 361.20805369127515,411.6086763937479 365.7718120805369,409.74245603053396 370.33557046979865,396.7047156274286 374.8993288590604,363.75951599769775 379.46308724832215,409.75827999883296 384.0268456375839,418.9308397630914 388.59060402684565,405.53408677985163 393.1543624161074,375.26565753282955 397.71812080536915,424.77835039241637 402.2818791946309,393.3379395951971 406.8456375838926,342.6400617468961 411.40939597315435,319.7801725624166 415.9731543624161,393.55937436177635 420.53691275167785,392.4816310941242 425.1006711409396,380.8290422600213 429.66442953020135,394.44672606180524 434.2281879194631,378.5171302546529 438.79194630872485,419.520055805614 443.3557046979866,403.8078631807609 447.91946308724835,341.6879023295661 452.4832214765101,410.54443893343375 457.04697986577185,406.6800646114428 461.61073825503354,397.15746254207306 466.1744966442953,366.909493585272 470.73825503355704,404.7181949111858 475.3020134228188,418.34172451017577 479.86577181208054,405.7791063144689 484.4295302013423,374.729557613196 488.99328859060404,427.1614198603268 493.5570469798658,406.5831050095087 498.12080536912754,342.9799243017004 502.6845637583893,319.4062431204462 507.24832214765104,390.1591361800208 511.81208053691273,390.06973579861176 516.3758389261745,381.9835872082075 520.9395973154362,397.96267071239686 525.5033557046979,379.6555488657191 530.0671140939597,423.0995986982227 534.6308724832215,404.90929200605797 539.1946308724832,342.91572132204135 543.7583892617449,410.1802860833424 548.3221476510067,408.3609328873835 552.8859060402685,399.5753044243985 557.4496644295302,365.55518363601163 562.0134228187919,409.803030584341 566.5771812080536,417.75603610389817 571.1409395973154,403.89927935430995 575.7046979865772,375.4466756670017 580.2684563758389,427.28770923789796 584.8322147651007,408.6189542813038 589.3959731543624,342.4774881108049 593.9597315436241,319.52215116849635 598.5234899328859,394.0112141699578 603.0872483221476,394.23829315452906 607.6510067114094,380.2509130742687 612.2147651006711,392.2015367762709 616.7785234899329,376.90318627776026 621.3422818791946,424.4858589529021 625.9060402684564,402.18162287181417 630.4697986577181,350.49439424120015 635.0335570469799,412.4248706312347 639.5973154362416,407.42671402009955 644.1610738255033,398.5271933012044 648.7248322147651,367.03931059908814 653.2885906040268,408.2156950636964 657.8523489932886,413.31030732873063 662.4161073825503,404.20769555173024 666.9798657718121,374.07623938062136 671.5436241610738,426.42706678372406 676.1073825503356,405.8285940115059 680.6711409395973,341.3757569166868 685.2348993288591,319.86886741657673 689.7986577181208,393.42582813250124 694.3624161073826,393.6801203109625 698.9261744966443,381.2501412380677 703.489932885906,398.62112921492854 708.0536912751678,379.9868443039284 712.6174496644295,422.99749882633154 717.1812080536913,406.22681374876333 721.744966442953,347.0136251634516 726.3087248322148,412.2468761852725 730.8724832214765,405.3848173718845 735.4362416107383,398.6766642883856 740.0,366.9797439413511" fill="none" stroke="#f1c40f" stroke-width="2" />
<polyline points="60.0,60.0 64.56375838926175,150.80034905032323 69.12751677852349,72.08870546359242 73.69127516778524,244.2161884022991 78.25503355704697,290.8354132241269 82.81879194630872,96.91419356378793 87.38255033557047,289.7045538335858 91.94630872483222,296.61267349737284 96.51006711409396,269.88326972094546 101.0738255033557,268.9761632579445 105.63758389261744,358.2982311423972 110.20134228187919,281.138445134647 114.76510067114094,246.9284367266719 119.32885906040269,368.3795100033685 123.89261744966443,323.31486407991025 128.4563758389262,260.9714526699963 133.0201342281879,206.16004859120005 137.58389261744966,152.61053039204512 142.1476510067114,369.96634157597816 146.71140939597313,277.23587155160294 151.27516778523488,273.5872877781992 155.83892617449663,249.23752662304426 160.40268456375838,221.49417940019575 164.96644295302013,309.420008858876 169.53020134228188,274.81188150325045 174.09395973154363,96.13508990167713 178.65771812080538,286.3412046479923 183.22147651006713,334.4853762237317 187.78523489932886,284.1349201507601 192.3489932885906,236.79605753495147 196.91275167785236,409.83266272879905 201.4765100671141,362.96902310999593 206.04026845637583,337.15831660137445 210.60402684563758,396.9395554117388 215.16778523489933,405.4115266177395 219.73154362416108,333.3686273781706 224.29530201342283,296.60864191309287 228.85906040268458,225.94000896497033 233.4228187919463,327.6800619590847 237.98657718120805,321.34442726305826 242.5503355704698,377.67473071934603 247.11409395973155,278.50078111945425 251.6778523489933,293.38438238515954 256.2416107382551,365.59045999846165 260.80536912751677,313.03029258161973 265.3691275167785,232.97310774143753 269.93288590604027,254.32437808833947 274.496644295302,376.9703121560223 279.06040268456377,361.44004477180437 283.6241610738255,347.8080488458264 288.18791946308727,322.16183097582905 292.75167785234896,357.04158632231986 297.31543624161077,354.0382576129308 301.87919463087246,303.0793346824995 306.44295302013427,407.69914832782086 311.00671140939596,369.03867403314916 315.5704697986577,288.926458067545 320.13422818791946,226.07909862263045 324.6979865771812,395.98074388034684 329.26174496644296,315.0612031626718 333.8255033557047,389.0307965296547 338.38926174496646,336.78539505547405 342.9530201342282,316.4349655060832 347.51677852348996,403.951387581129 352.08053691275165,354.20093203862893 356.6442953020134,226.72516000350114 361.20805369127515,380.4756738978789 365.7718120805369,383.07745681297956 370.33557046979865,352.23956628640695 374.8993288590604,327.1670428594542 379.46308724832215,413.99436639144034 384.0268456375839,399.40224866917936 388.59060402684565,381.39759643310884 393.1543624161074,385.99561830445356 397.71812080536915,410.98105951095823 402.2818791946309,391.7261122000515 406.8456375838926,329.43480901695654 411.40939597315435,306.7642027144233 415.9731543624161,393.6839503160285 420.53691275167785,376.22114300719056 425.1006711409396,377.86381202207826 429.66442953020135,390.90508006142863 434.2281879194631,364.0897027502301 438.79194630872485,422.7830185426353 443.3557046979866,400.65607138026064 447.91946308724835,341.4916649647369 452.4832214765101,408.78959108595495 457.04697986577185,403.99593658742305 461.61073825503354,391.288584516064 466.1744966442953,360.3492996448492 470.73825503355704,407.1807873790193 475.3020134228188,412.97790320484427 479.86577181208054,400.09195194988104 484.4295302013423,374.94998448370524 488.99328859060404,422.0772897144206 493.5570469798658,398.61860947475355 498.12080536912754,338.39802876747575 502.6845637583893,318.8337581526857 507.24832214765104,389.9211719178936 511.81208053691273,385.0931481633747 516.3758389261745,378.8993244443973 520.9395973154362,400.50115775430146 525.5033557046979,372.09945281852833 530.0671140939597,425.54163008622817 534.6308724832215,403.1490015198012 539.1946308724832,344.516260281203 543.7583892617449,398.6838203504826 548.3221476510067,404.4324563753405 552.8859060402685,395.207385225835 557.4496644295302,361.30609538410124 562.0134228187919,407.85809353806 566.5771812080536,419.48780313137394 571.1409395973154,399.1639820382311 575.7046979865772,374.94716237470925 580.2684563758389,424.85192680552643 584.8322147651007,390.9190898168016 589.3959731543624,338.2911917840556 593.9597315436241,319.5685143877164 598.5234899328859,381.78241115263523 603.0872483221476,380.99816722056744 607.6510067114094,372.3994026889606 612.2147651006711,394.8089639093636 616.7785234899329,372.8406595884071 621.3422818791946,423.95883009789856 625.9060402684564,404.4495906085305 630.4697986577181,342.1788485052636 635.0335570469799,403.8107860793639 639.5973154362416,400.01767000952196 644.1610738255033,390.08233449948676 648.7248322147651,360.19680496945807 653.2885906040268,407.81717295761797 657.8523489932886,418.58361956697604 662.4161073825503,402.956997318466 666.9798657718121,370.821138232946 671.5436241610738,422.1827156433427 676.1073825503356,397.5081095848264 680.6711409395973,338.30127074475564 685.2348993288591,313.1885322646099 689.7986577181208,391.3711312041971 694.3624161073826,381.7199215962952 698.9261744966443,377.5078231301539 703.489932885906,396.14442620211497 708.0536912751678,371.05930407428724 712.6174496644295,419.36302559790784 717.1812080536913,394.4763582062633 721.744966442953,348.72049715799835 726.3087248322148,404.1283741310212 730.8724832214765,404.78773974001587 735.4362416107383,398.2238165841341 740.0,356.82398156080666" fill="none" stroke="#3498db" stroke-width="2" />
<rect x="600" y="50" width="15" height="15" fill="#e74c3c" />
<text x="620" y="62" font-family="Arial" font-size="12">Baseline (He Init, No PE)</text>
<rect x="600" y="70" width="15" height="15" fill="#f1c40f" />
<text x="620" y="82" font-family="Arial" font-size="12">Identity Init, No PE</text>
<rect x="600" y="90" width="15" height="15" fill="#3498db" />
<text x="620" y="102" font-family="Arial" font-size="12">Identity Init + Pos Emb</text>
<text x="400.0" y="30" font-family="Arial" font-size="16" text-anchor="middle" font-weight="bold">Zenith Ablation Study (2000 Steps)</text>
</svg>