<svg width="600" height="400" xmlns="http://www.w3.org/2000/svg">
<rect width="100%" height="100%" fill="white" />
<line x1="50" y1="350" x2="550" y2="350" stroke="black" />
<line x1="50" y1="50" x2="50" y2="350" stroke="black" />
<line x1="50" y1="350.0" x2="550" y2="350.0" stroke="#ddd" stroke-dasharray="4" />
<text x="45" y="355.0" font-family="Arial" font-size="10" text-anchor="end">0.00</text>
<line x1="50" y1="275.0" x2="550" y2="275.0" stroke="#ddd" stroke-dasharray="4" />
<text x="45" y="280.0" font-family="Arial" font-size="10" text-anchor="end">1.05</text>
<line x1="50" y1="200.0" x2="550" y2="200.0" stroke="#ddd" stroke-dasharray="4" />
<text x="45" y="205.0" font-family="Arial" font-size="10" text-anchor="end">2.10</text>
<line x1="50" y1="125.0" x2="550" y2="125.0" stroke="#ddd" stroke-dasharray="4" />
<text x="45" y="130.0" font-family="Arial" font-size="10" text-anchor="end">3.15</text>
<line x1="50" y1="50.0" x2="550" y2="50.0" stroke="#ddd" stroke-dasharray="4" />
<text x="45" y="55.0" font-family="Arial" font-size="10" text-anchor="end">4.21</text>
<polyline points="50.0,50.0 76.3157894736842,209.8240629569311 102.63157894736841,239.15467005860606 128.94736842105263,228.66834678617704 155.26315789473682,235.98922979993108 181.57894736842104,236.49136363096017 207.89473684210526,195.7743013040739 234.21052631578945,256.7001105550338 260.52631578947364,245.2815587071005 286.8421052631579,258.4190630163693 313.1578947368421,261.57166462595546 339.4736842105263,249.46767156833607 365.7894736842105,269.52663425304024 392.10526315789474,270.7049369360802 418.4210526315789,270.61292661761036 444.7368421052631,247.53688139703524 471.05263157894734,252.22512808929994 497.36842105263156,272.76340033998645 523.6842105263158,215.07079088455916 550.0,254.12382163787876" fill="none" stroke="#3498db" stroke-width="2" />
<polyline points="50.0,323.2668655864766 76.3157894736842,305.2720723719404 102.63157894736841,130.2222988314452 128.94736842105263,314.3761724183022 155.26315789473682,337.27689875298677 181.57894736842104,226.07565292851962 207.89473684210526,278.99164299045424 234.21052631578945,256.313524565804 260.52631578947364,272.6321608159675 286.8421052631579,302.9595463677322 313.1578947368421,307.32219065393895 339.4736842105263,317.9565150200307 365.7894736842105,311.5505997313394 392.10526315789474,326.0298855220456 418.4210526315789,250.20732040750823 444.7368421052631,293.9332628000143 471.05263157894734,314.6770960877783 497.36842105263156,338.92844830660596 523.6842105263158,315.503691111613 550.0,296.8089062184235" fill="none" stroke="#e74c3c" stroke-width="2" />
<rect x="450" y="20" width="15" height="15" fill="#3498db" />
<text x="470" y="32" font-family="Arial" font-size="12">Zenith AE</text>
<rect x="450" y="40" width="15" height="15" fill="#e74c3c" />
<text x="470" y="52" font-family="Arial" font-size="12">Conv Baseline</text>
<text x="300.0" y="25" font-family="Arial" font-size="16" text-anchor="middle" font-weight="bold">Training Loss (20 Steps)</text>
</svg>