<svg width="800" height="500" xmlns="http://www.w3.org/2000/svg">
<rect width="100%" height="100%" fill="white" />
<line x1="60" y1="440" x2="740" y2="440" stroke="black" />
<line x1="60" y1="60" x2="60" y2="440" stroke="black" />
<text x="400.0" y="480" font-family="Arial" font-size="14" text-anchor="middle">Training Steps</text>
<text x="20" y="250.0" font-family="Arial" font-size="14" text-anchor="middle" transform="rotate(-90 20,250.0)">MSE Loss</text>
<line x1="60" y1="440.0" x2="740" y2="440.0" stroke="#ddd" stroke-dasharray="4" />
<text x="55" y="445.0" font-family="Arial" font-size="10" text-anchor="end">0.00</text>
<line x1="60" y1="345.0" x2="740" y2="345.0" stroke="#ddd" stroke-dasharray="4" />
<text x="55" y="350.0" font-family="Arial" font-size="10" text-anchor="end">0.85</text>
<line x1="60" y1="250.0" x2="740" y2="250.0" stroke="#ddd" stroke-dasharray="4" />
<text x="55" y="255.0" font-family="Arial" font-size="10" text-anchor="end">1.70</text>
<line x1="60" y1="155.0" x2="740" y2="155.0" stroke="#ddd" stroke-dasharray="4" />
<text x="55" y="160.0" font-family="Arial" font-size="10" text-anchor="end">2.55</text>
<line x1="60" y1="60.0" x2="740" y2="60.0" stroke="#ddd" stroke-dasharray="4" />
<text x="55" y="65.0" font-family="Arial" font-size="10" text-anchor="end">3.40</text>
<polyline points="60.0,97.68391608391613 64.56375838926175,76.8704895104895 69.12751677852349,163.49090909090916 73.69127516778524,148.3871328671329 78.25503355704697,125.28111888111886 82.81879194630872,226.26461538461538 87.38255033557047,150.70993006993012 91.94630872483222,139.49538461538464 96.51006711409396,238.30825174825176 101.0738255033557,70.20755244755247 105.63758389261744,258.57006993006996 110.20134228187919,270.8833566433567 114.76510067114094,287.41034965034964 119.32885906040269,154.68307692307695 123.89261744966443,260.67468531468535 128.4563758389262,353.2377062937063 133.0201342281879,335.5423776223776 137.58389261744966,332.45874125874127 142.1476510067114,340.2182937062937 146.71140939597313,347.8086713286713 151.27516778523488,349.2867132867133 155.83892617449663,290.0766433566434 160.40268456375838,316.8604195804196 164.96644295302013,282.3373426573427 169.53020134228188,285.0506293706294 174.09395973154363,314.38545454545454 178.65771812080538,281.36167832167837 183.22147651006713,283.74377622377625 187.78523489932886,318.2534265734266 192.3489932885906,227.32643356643356 196.91275167785236,313.4735664335665 201.4765100671141,353.5106013986014 206.04026845637583,362.08458741258744 210.60402684563758,256.8593006993007 215.16778523489933,334.3086993006993 219.73154362416108,370.83703496503495 224.29530201342283,368.2237762237762 228.85906040268458,386.48704895104896 233.4228187919463,370.9789090909091 237.98657718120805,392.1149090909091 242.5503355704698,394.3362237762238 247.11409395973155,361.47535664335663 251.6778523489933,368.6412307692308 256.2416107382551,324.55384615384617 260.80536912751677,341.161062937063 265.3691275167785,345.5496503496504 269.93288590604027,330.22914685314686 274.496644295302,340.1503776223776 279.06040268456377,357.85913286713287 283.6241610738255,287.00643356643354 288.18791946308727,357.3602237762238 292.75167785234896,372.4375944055944 297.31543624161077,386.1006993006993 301.87919463087246,297.78909090909093 306.44295302013427,355.8284755244755 311.00671140939596,389.59082517482517 315.5704697986577,388.33197202797203 320.13422818791946,403.1437202797203 324.6979865771812,392.64883916083915 329.26174496644296,404.5472447552448 333.8255033557047,408.7588251748252 338.38926174496646,378.5523916083916 342.9530201342282,394.1538461538462 347.51677852348996,310.1538461538462 352.08053691275165,362.4714965034965 356.6442953020134,372.1032727272727 361.20805369127515,363.6162237762238 365.7718120805369,368.7409230769231 370.33557046979865,378.0101818181818 374.8993288590604,333.7732027972028 379.46308724832215,382.688 384.0268456375839,406.32827972027974 388.59060402684565,406.07384615384615 393.1543624161074,347.8435804195804 397.71812080536915,385.9282797202797 402.2818791946309,408.08895104895106 406.8456375838926,410.4198041958042 411.40939597315435,417.47255944055945 415.9731543624161,405.7061818181818 420.53691275167785,410.8473286713287 425.1006711409396,411.60693706293705 429.66442953020135,395.875020979021 434.2281879194631,408.4307692307692 438.79194630872485,372.91367832167833 443.3557046979866,390.0237202797203 447.91946308724835,389.8028531468532 452.4832214765101,374.09611188811186 457.04697986577185,392.40111888111886 461.61073825503354,395.5781818181818 466.1744966442953,353.67496503496506 470.73825503355704,391.6993566433566 475.3020134228188,411.80587412587414 479.86577181208054,408.97823776223777 484.4295302013423,359.26556643356645 488.99328859060404,395.70763636363637 493.5570469798658,406.90002797202794 498.12080536912754,410.56626573426576 502.6845637583893,421.987020979021 507.24832214765104,404.76833566433567 511.81208053691273,425.20514685314686 516.3758389261745,417.2361398601399 520.9395973154362,405.26825174825177 525.5033557046979,414.3471888111888 530.0671140939597,384.8539300699301 534.6308724832215,398.44128671328673 539.1946308724832,389.60928671328674 543.7583892617449,394.4249510489511 548.3221476510067,403.21723076923075 552.8859060402685,405.98925874125877 557.4496644295302,369.50903496503497 562.0134228187919,402.5234125874126 566.5771812080536,416.44106293706295 571.1409395973154,419.62953846153846 575.7046979865772,376.0956643356643 580.2684563758389,407.9653146853147 584.8322147651007,418.5428811188811 589.3959731543624,419.716027972028 593.9597315436241,421.39412587412585 598.5234899328859,418.97376223776223 603.0872483221476,428.1873006993007 607.6510067114094,427.3217342657343 612.2147651006711,419.65023776223774 616.7785234899329,424.36855944055947 621.3422818791946,395.22383216783214 625.9060402684564,407.5076923076923 630.4697986577181,407.79311888111886 635.0335570469799,394.5459020979021 639.5973154362416,413.9408111888112 644.1610738255033,411.70528671328674 648.7248322147651,379.2145454545455 653.2885906040268,405.08833566433566 657.8523489932886,423.1485314685315 662.4161073825503,423.03977622377624 666.9798657718121,388.6357482517483 671.5436241610738,414.1124475524476 676.1073825503356,418.9451188811189 680.6711409395973,424.54511888111887 685.2348993288591,428.3236923076923 689.7986577181208,421.79311888111886 694.3624161073826,427.56072727272726 698.9261744966443,431.3408671328671 703.489932885906,422.84956643356645 708.0536912751678,424.55574825174824 712.6174496644295,406.79787412587416 717.1812080536913,412.78914685314686 721.744966442953,410.524979020979 726.3087248322148,405.6924195804196 730.8724832214765,417.1095944055944 735.4362416107383,415.0468251748252 740.0,389.38416783216786" fill="none" stroke="#e74c3c" stroke-width="2" />
<polyline points="60.0,190.75916083916084 64.56375838926175,85.73090909090911 69.12751677852349,166.99412587412593 73.69127516778524,154.66069930069932 78.25503355704697,132.0145454545455 82.81879194630872,228.22825174825178 87.38255033557047,145.6783216783217 91.94630872483222,134.7815384615385 96.51006711409396,242.6193006993007 101.0738255033557,60.0 105.63758389261744,266.06769230769237 110.20134228187919,267.4573426573427 114.76510067114094,291.7348251748252 119.32885906040269,146.0576223776224 123.89261744966443,251.38797202797204 128.4563758389262,355.03977622377624 133.0201342281879,328.72906293706296 137.58389261744966,339.9452867132867 142.1476510067114,326.4984615384615 146.71140939597313,347.2742937062937 151.27516778523488,346.1205034965035 155.83892617449663,280.16223776223774 160.40268456375838,305.9927272727273 164.96644295302013,268.0290909090909 169.53020134228188,267.33202797202796 174.09395973154363,310.15608391608396 178.65771812080538,273.31468531468533 183.22147651006713,263.14069930069934 187.78523489932886,320.2427972027972 192.3489932885906,219.69006993006994 196.91275167785236,316.45090909090914 201.4765100671141,357.0157202797203 206.04026845637583,353.7996083916084 210.60402684563758,257.4187412587413 215.16778523489933,330.1856223776224 219.73154362416108,371.7646993006993 224.29530201342283,375.2812307692308 228.85906040268458,381.8448111888112 233.4228187919463,379.00878321678323 237.98657718120805,394.0193566433567 242.5503355704698,389.88195804195806 247.11409395973155,353.8988531468532 251.6778523489933,372.27737062937064 256.2416107382551,324.93314685314687 260.80536912751677,336.973986013986 265.3691275167785,345.28313286713285 269.93288590604027,335.33583216783217 274.496644295302,343.9592727272727 279.06040268456377,346.79518881118884 283.6241610738255,284.9387412587413 288.18791946308727,350.1215104895105 292.75167785234896,378.96022377622376 297.31543624161077,383.2431888111888 301.87919463087246,295.3174825174825 306.44295302013427,363.2012307692308 311.00671140939596,383.3386293706294 315.5704697986577,388.1456783216783 320.13422818791946,400.708027972028 324.6979865771812,392.7414825174825 329.26174496644296,404.80302097902097 333.8255033557047,407.67586013986016 338.38926174496646,379.6091748251748 342.9530201342282,387.83015384615385 347.51677852348996,345.56184615384615 352.08053691275165,360.67725874125875 356.6442953020134,372.42595804195804 361.20805369127515,351.3064055944056 365.7718120805369,368.0293146853147 370.33557046979865,370.229034965035 374.8993288590604,322.14377622377623 379.46308724832215,369.8366433566434 384.0268456375839,389.83384615384614 388.59060402684565,400.9617902097902 393.1543624161074,330.79138461538463 397.71812080536915,375.0621538461539 402.2818791946309,391.9786293706294 406.8456375838926,395.6568391608392 411.40939597315435,409.9492027972028 415.9731543624161,401.5282797202797 420.53691275167785,415.8736783216783 425.1006711409396,417.5631888111888 429.66442953020135,394.58595804195807 434.2281879194631,402.0788811188811 438.79194630872485,364.0867132867133 443.3557046979866,375.1885874125874 447.91946308724835,377.53264335664335 452.4832214765101,372.2283636363636 457.04697986577185,385.88676923076923 461.61073825503354,384.16928671328674 466.1744966442953,340.8383776223776 470.73825503355704,372.21795804195807 475.3020134228188,407.6526993006993 479.86577181208054,411.48755244755245 484.4295302013423,346.8849230769231 488.99328859060404,391.4087832167832 493.5570469798658,399.56218181818184 498.12080536912754,415.7961398601399 502.6845637583893,415.76156643356643 507.24832214765104,410.0552727272727 511.81208053691273,419.6735104895105 516.3758389261745,420.0335664335664 520.9395973154362,410.525986013986 525.5033557046979,409.51876923076924 530.0671140939597,383.8274685314685 534.6308724832215,393.41404195804193 539.1946308724832,392.6441398601399 543.7583892617449,386.38847552447555 548.3221476510067,391.60895104895104 552.8859060402685,394.9655944055944 557.4496644295302,355.494041958042 562.0134228187919,395.101986013986 566.5771812080536,413.66243356643355 571.1409395973154,410.9420979020979 575.7046979865772,366.5092027972028 580.2684563758389,399.75731468531467 584.8322147651007,405.2961118881119 589.3959731543624,412.7822097902098 593.9597315436241,420.00067132867133 598.5234899328859,414.988979020979 603.0872483221476,421.3412027972028 607.6510067114094,423.1812027972028 612.2147651006711,415.1061258741259 616.7785234899329,411.45197202797203 621.3422818791946,392.66304895104895 625.9060402684564,404.99379020979023 630.4697986577181,391.3197202797203 635.0335570469799,393.0747972027972 639.5973154362416,407.06405594405595 644.1610738255033,404.9526153846154 648.7248322147651,372.5648111888112 653.2885906040268,401.262993006993 657.8523489932886,417.5301818181818 662.4161073825503,420.10025174825176 666.9798657718121,374.6331748251748 671.5436241610738,408.3235804195804 676.1073825503356,411.2242797202797 680.6711409395973,420.66416783216783 685.2348993288591,422.5393006993007 689.7986577181208,416.36352447552446 694.3624161073826,425.3865174825175 698.9261744966443,424.65409790209793 703.489932885906,420.8726153846154 708.0536912751678,419.20257342657345 712.6174496644295,390.1893146853147 717.1812080536913,407.9401398601399 721.744966442953,402.40805594405595 726.3087248322148,397.39904895104894 730.8724832214765,409.7645874125874 735.4362416107383,408.51255944055947 740.0,379.41706293706295" fill="none" stroke="#3498db" stroke-width="2" />
<rect x="550" y="50" width="15" height="15" fill="#e74c3c" />
<text x="570" y="62" font-family="Arial" font-size="12">Standard Zenith (He+PE)</text>
<rect x="550" y="70" width="15" height="15" fill="#3498db" />
<text x="570" y="82" font-family="Arial" font-size="12">Zenith-SLM (He+PE+SLM)</text>
<text x="400.0" y="30" font-family="Arial" font-size="16" text-anchor="middle" font-weight="bold">Zenith-SLM Comparison</text>
</svg>