<svg width="600" height="400" xmlns="http://www.w3.org/2000/svg">
<rect width="100%" height="100%" fill="white" />
<line x1="50" y1="350" x2="550" y2="350" stroke="black" />
<line x1="50" y1="50" x2="50" y2="350" stroke="black" />
<rect x="100" y="349.4171834563752" width="40" height="0.5828165436247869" fill="#3498db" />
<text x="120.0" y="344.4171834563752" font-family="Arial" font-size="12" text-anchor="middle">0.009s</text>
<rect x="140" y="346.53635001771556" width="40" height="3.4636499822844558" fill="#e74c3c" />
<text x="160.0" y="341.53635001771556" font-family="Arial" font-size="12" text-anchor="middle">0.056s</text>
<text x="140" y="370" font-family="Arial" font-size="12" text-anchor="middle">ZenithHierarchicalAE</text>
<rect x="280" y="349.37272676414705" width="40" height="0.6272732358529465" fill="#3498db" />
<text x="300.0" y="344.37272676414705" font-family="Arial" font-size="12" text-anchor="middle">0.010s</text>
<rect x="320" y="346.59125577309186" width="40" height="3.408744226908151" fill="#e74c3c" />
<text x="340.0" y="341.59125577309186" font-family="Arial" font-size="12" text-anchor="middle">0.055s</text>
<text x="320" y="370" font-family="Arial" font-size="12" text-anchor="middle">Zenith-SLM</text>
<rect x="460" y="288.11711735978304" width="40" height="61.88288264021698" fill="#3498db" />
<text x="480.0" y="283.11711735978304" font-family="Arial" font-size="12" text-anchor="middle">0.996s</text>
<rect x="500" y="50.0" width="40" height="300.0" fill="#e74c3c" />
<text x="520.0" y="45.0" font-family="Arial" font-size="12" text-anchor="middle">4.826s</text>
<text x="500" y="370" font-family="Arial" font-size="12" text-anchor="middle">ConvBaselineAE</text>
<rect x="450" y="20" width="15" height="15" fill="#3498db" />
<text x="470" y="32" font-family="Arial" font-size="12">Forward Pass</text>
<rect x="450" y="40" width="15" height="15" fill="#e74c3c" />
<text x="470" y="52" font-family="Arial" font-size="12">Backward Pass</text>
<text x="300.0" y="25" font-family="Arial" font-size="16" text-anchor="middle" font-weight="bold">Wavelet AE Benchmark (128x128)</text>
</svg>